{"title":"Clash Of The Titans 2010 DVDRIP H264 FEEL-FREE","uid":5677012,"size":742706548,"categoryP":"video","categoryS":"movies","magnet":"?xt=urn:btih:23af0aeea68321502df79ab506764436c799c1cd&amp;dn=Clash+Of+The+Titans+2010+DVDRIP+H264+FEEL-FREE&amp;tr=udp%3A%2F%2Ftracker.openbittorrent.com%3A80&amp;tr=udp%3A%2F%2Fopen.demonii.com%3A1337&amp;tr=udp%3A%2F%2Ftracker.coppersurfer.tk%3A6969&amp;tr=udp%3A%2F%2Fexodus.desync.com%3A6969","seeders":2,"leechers":0,"uploader":"neon","files":11,"time":1278582175,"description":"Clash Of The Titans 2010 DVDRIP H264 FEEL-FREE\n\nscreens\n &lt;a href=&quot;\nhttp://img231.imageshack.us/slideshow/webplayer.php?id=clash1r.png&quot; rel=&quot;nofollow&quot; target=&quot;_NEW&quot;&gt;\nhttp://img231.imageshack.us/slideshow/webplayer.php?id=clash1r.png&lt;/a&gt;\n\n...........................................................................\n\nPlot:\nThe mortal son of the god Zeus embarks on a perilous journey to stop the underworld and its minions from spreading their evil to Earth as well as the heavens\n................................................................\n\nTiTLE...... Clash of the Titans\nYEAR....... 2010\nGENRE...... Action | Adventure | Drama | Fantasy\niMDB URL... http://www.imdb.com/title/tt0800320/\nEncoder: Tony2\nLanguage: English\nSubtitles: Romana\n..........................................\nGeneral\nComplete name : Clash Of The Titans 2010 DVDRIP H264 FEEL-FREE\nFormat : MPEG-4\nFormat profile : Base Media\nCodec ID : isom\nFile size : 707 MiB\nDuration : 1h 46mn\nOverall bit rate : 931 Kbps\n............................................\nVideo\nID : 1\nFormat : AVC\nFormat/Info : Advanced Video Codec\nFormat profile : &lt;a class=&quot;__cf_email__&quot; href=&quot;/cdn-cgi/l/email-protection&quot; data-cfemail=&quot;266b474f48666a170815&quot;&gt;[email&amp;#160;protected]&lt;/a&gt;&lt;script cf-hash='f9e31' type=&quot;text/javascript&quot;&gt;\n/* &lt;![CDATA[ */!function(){try{var t=&quot;currentScript&quot;in document?document.currentScript:function(){for(var t=document.getElementsByTagName(&quot;script&quot;),e=t.length;e--;)if(t[e].getAttribute(&quot;cf-hash&quot;))return t[e]}();if(t&amp;&amp;t.previousSibling){var e,r,n,i,c=t.previousSibling,a=c.getAttribute(&quot;data-cfemail&quot;);if(a){for(e=&quot;&quot;,r=parseInt(a.substr(0,2),16),n=2;a.length-n;n+=2)i=parseInt(a.substr(n,2),16)^r,e+=String.fromCharCode(i);e=document.createTextNode(e),c.parentNode.replaceChild(e,c)}}}catch(u){}}();/* ]]&gt; */&lt;/script&gt;\nFormat settings, CABAC : Yes\nFormat settings, ReFrames : 1 frame\nCodec ID : avc1\nCodec ID/Info : Advanced Video Coding\nDuration : 1h 46mn\nBit rate mode : Variable\nBit rate : 798 Kbps\nWidth : 720 pixels\nHeight : 304 pixels\nDisplay aspect ratio : 2.35:1\nFrame rate mode : Constant\nFrame rate : 29.970 fps\nResolution : 24 bits\nColorimetry : 4:2:0\nScan type : Progressive\nBits/(Pixel*Frame) : 0.122\nStream size : 606 MiB (86%)\n..............................................\nAudio\nID : 2\nFormat : AAC\nFormat/Info : Advanced Audio Codec\nFormat version : Version 4\nFormat profile : LC\nFormat settings, SBR : No\nCodec ID : 40\nDuration : 1h 46mn\nBit rate mode : Variable\nBit rate : 128 Kbps\nChannel(s) : 2 channels\nChannel positions : L R\nSampling rate : 44.1 KHz\nResolution : 16 bits\nStream size : 97.1 MiB (14%)\n...............................................\n","torrent":{"xt":"urn:btih:23af0aeea68321502df79ab506764436c799c1cd","amp;dn":"Clash+Of+The+Titans+2010+DVDRIP+H264+FEEL-FREE","amp;tr":["udp%3A%2F%2Ftracker.openbittorrent.com%3A80","udp%3A%2F%2Fopen.demonii.com%3A1337","udp%3A%2F%2Ftracker.coppersurfer.tk%3A6969","udp%3A%2F%2Fexodus.desync.com%3A6969"],"infoHash":"23af0aeea68321502df79ab506764436c799c1cd","infoHashBuffer":{"type":"Buffer","data":[35,175,10,238,166,131,33,80,45,247,154,181,6,118,68,54,199,153,193,205]},"announce":[],"urlList":[]}}